<svg xmlns="http://www.w3.org/2000/svg" viewBox="0 0 2000 1100" font-family="-apple-system, 'Helvetica Neue', Helvetica, Arial, sans-serif">
  <defs>
    <filter id="cardshadow" x="-3%" y="-3%" width="106%" height="106%">
      <feGaussianBlur in="SourceAlpha" stdDeviation="3"/>
      <feOffset dx="0" dy="2"/>
      <feComponentTransfer><feFuncA type="linear" slope="0.10"/></feComponentTransfer>
      <feMerge><feMergeNode/><feMergeNode in="SourceGraphic"/></feMerge>
    </filter>
    <marker id="arrowhead" markerWidth="12" markerHeight="10" refX="10" refY="5" orient="auto">
      <path d="M0,0 L0,10 L11,5 z" fill="#334155"/>
    </marker>
    <marker id="arrowhead-thin" markerWidth="10" markerHeight="8" refX="8" refY="4" orient="auto">
      <path d="M0,0 L0,8 L9,4 z" fill="#64748b"/>
    </marker>
    <marker id="arrowhead-curve" markerWidth="9" markerHeight="7" refX="7" refY="3.5" orient="auto">
      <path d="M0,0 L0,7 L8,3.5 z" fill="#475569"/>
    </marker>
  </defs>

  <rect width="2000" height="1100" fill="#fafbfc"/>

  <!-- ===================== TITLE ===================== -->
  <text x="1000" y="42" text-anchor="middle" font-size="26" font-weight="700" fill="#0f172a">
    Unified Multimodal Perceiver-Decision Transformer for a Screen-Based Clash Royale Agent
  </text>
  <text x="1000" y="68" text-anchor="middle" font-size="13" fill="#64748b">
    Screen-only observation  →  YOLO detection  →  multimodal tokens  →  Perceiver fusion  →  Decision Transformer  →  policy heads
  </text>

  <!-- ===================== INTER-STAGE ARROWS ===================== -->
  <line x1="316" y1="510" x2="358" y2="510" stroke="#334155" stroke-width="2.5" marker-end="url(#arrowhead)"/>
  <line x1="648" y1="510" x2="690" y2="510" stroke="#334155" stroke-width="2.5" marker-end="url(#arrowhead)"/>
  <line x1="980" y1="510" x2="1022" y2="510" stroke="#334155" stroke-width="2.5" marker-end="url(#arrowhead)"/>
  <line x1="1312" y1="510" x2="1354" y2="510" stroke="#334155" stroke-width="2.5" marker-end="url(#arrowhead)"/>
  <line x1="1644" y1="510" x2="1686" y2="510" stroke="#334155" stroke-width="2.5" marker-end="url(#arrowhead)"/>

  <!-- ============================================================ -->
  <!-- STAGE 1 — Raw Gameplay Frames                                -->
  <!-- ============================================================ -->
  <g>
    <rect x="30" y="90" width="280" height="860" rx="14" fill="#ffffff" stroke="#e2e8f0" stroke-width="1.5" filter="url(#cardshadow)"/>
    <circle cx="60" cy="123" r="17" fill="#3b82f6"/>
    <text x="60" y="129" text-anchor="middle" font-size="16" font-weight="700" fill="white">1</text>
    <text x="170" y="120" text-anchor="middle" font-size="15" font-weight="700" fill="#0f172a">Raw Gameplay Frames</text>
    <text x="170" y="140" text-anchor="middle" font-size="11" fill="#64748b">Screen-only observation</text>

    <!-- stacked phone-frame thumbnails -->
    <g transform="translate(70, 175)">
      <rect x="35" y="20" width="120" height="220" rx="8" fill="#bfdbfe" stroke="#3b82f6" stroke-width="1.4" opacity="0.5"/>
      <rect x="20" y="10" width="120" height="220" rx="8" fill="#dbeafe" stroke="#3b82f6" stroke-width="1.4" opacity="0.78"/>
      <rect x="5"  y="0"  width="120" height="220" rx="8" fill="#eff6ff" stroke="#1d4ed8" stroke-width="2"/>
      <!-- mini arena on top frame -->
      <!-- enemy towers -->
      <rect x="20" y="14"  width="14" height="14" rx="2" fill="#ef4444"/>
      <rect x="56" y="9"   width="20" height="20" rx="2" fill="#ef4444"/>
      <rect x="96" y="14"  width="14" height="14" rx="2" fill="#ef4444"/>
      <!-- river -->
      <rect x="10" y="86"  width="115" height="12" fill="#7dd3fc" opacity="0.7"/>
      <!-- ally towers -->
      <rect x="20" y="120" width="14" height="14" rx="2" fill="#22c55e"/>
      <rect x="56" y="115" width="20" height="20" rx="2" fill="#22c55e"/>
      <rect x="96" y="120" width="14" height="14" rx="2" fill="#22c55e"/>
      <!-- units -->
      <circle cx="38" cy="60" r="3" fill="#1e3a8a"/>
      <circle cx="46" cy="65" r="3" fill="#1e3a8a"/>
      <circle cx="80" cy="110" r="3" fill="#1e3a8a"/>
      <circle cx="86" cy="105" r="3" fill="#1e3a8a"/>
      <!-- card row -->
      <rect x="10" y="180" width="22" height="28" rx="2" fill="#a855f7" opacity="0.75"/>
      <rect x="36" y="180" width="22" height="28" rx="2" fill="#a855f7" opacity="0.75"/>
      <rect x="62" y="180" width="22" height="28" rx="2" fill="#a855f7" opacity="0.75"/>
      <rect x="88" y="180" width="22" height="28" rx="2" fill="#a855f7" opacity="0.75"/>
    </g>

    <!-- caption -->
    <text x="170" y="640" text-anchor="middle" font-size="12" font-weight="600" fill="#1e293b">Pixel input only</text>
    <text x="170" y="668" text-anchor="middle" font-size="11" fill="#475569">No internal game API,</text>
    <text x="170" y="686" text-anchor="middle" font-size="11" fill="#475569">no privileged state.</text>
    <text x="170" y="730" text-anchor="middle" font-size="11" fill="#64748b" font-style="italic">Trajectories assumed</text>
    <text x="170" y="748" text-anchor="middle" font-size="11" fill="#64748b" font-style="italic">pre-segmented (no OCR cuts).</text>
  </g>

  <!-- ============================================================ -->
  <!-- STAGE 2 — YOLO Object Detection                              -->
  <!-- ============================================================ -->
  <g>
    <rect x="362" y="90" width="280" height="860" rx="14" fill="#ffffff" stroke="#e2e8f0" stroke-width="1.5" filter="url(#cardshadow)"/>
    <circle cx="392" cy="123" r="17" fill="#16a34a"/>
    <text x="392" y="129" text-anchor="middle" font-size="16" font-weight="700" fill="white">2</text>
    <text x="502" y="120" text-anchor="middle" font-size="15" font-weight="700" fill="#0f172a">YOLO Object Detection</text>
    <text x="502" y="140" text-anchor="middle" font-size="11" fill="#64748b">YOLOv8 — single shared detector</text>

    <!-- frame with bounding boxes -->
    <g transform="translate(382, 175)">
      <rect x="0" y="0" width="240" height="280" rx="8" fill="#f0fdf4" stroke="#16a34a" stroke-width="2"/>
      <!-- arena outline -->
      <line x1="0" y1="115" x2="240" y2="115" stroke="#86efac" stroke-width="6" opacity="0.5"/>
      <!-- bounding boxes (different colors representing classes) -->
      <rect x="32" y="20" width="40" height="42" fill="none" stroke="#dc2626" stroke-width="2.2"/>
      <text x="34" y="16" font-size="9" font-weight="600" fill="#dc2626">queen-tower</text>
      <rect x="160" y="22" width="38" height="40" fill="none" stroke="#dc2626" stroke-width="2.2"/>
      <text x="162" y="18" font-size="9" font-weight="600" fill="#dc2626">queen-tower</text>
      <rect x="88" y="55" width="34" height="36" fill="none" stroke="#f59e0b" stroke-width="2.2"/>
      <text x="92" y="51" font-size="9" font-weight="600" fill="#a16207">hog-rider</text>
      <rect x="98" y="138" width="22" height="26" fill="none" stroke="#2563eb" stroke-width="2.2"/>
      <text x="100" y="178" font-size="9" font-weight="600" fill="#2563eb">knight</text>
      <rect x="155" y="170" width="32" height="24" fill="none" stroke="#7c3aed" stroke-width="2.2"/>
      <text x="155" y="208" font-size="9" font-weight="600" fill="#7c3aed">archer</text>
      <rect x="32" y="225" width="40" height="40" fill="none" stroke="#dc2626" stroke-width="2.2"/>
      <text x="32" y="220" font-size="9" font-weight="600" fill="#dc2626">queen-tower</text>
      <rect x="160" y="225" width="40" height="40" fill="none" stroke="#dc2626" stroke-width="2.2"/>
      <text x="160" y="220" font-size="9" font-weight="600" fill="#dc2626">queen-tower</text>
    </g>

    <!-- structured output mock -->
    <g transform="translate(382, 488)">
      <rect x="0" y="0" width="240" height="155" rx="8" fill="#f8fafc" stroke="#cbd5e1" stroke-width="1"/>
      <text x="14" y="22" font-size="11" font-weight="700" fill="#16a34a">Detection</text>
      <text x="14" y="45"  font-size="11" fill="#475569"><tspan fill="#94a3b8">class_id  </tspan> 38  <tspan fill="#64748b">(knight)</tspan></text>
      <text x="14" y="65"  font-size="11" fill="#475569"><tspan fill="#94a3b8">bbox      </tspan> [0.41, 0.58, 0.10, 0.13]</text>
      <text x="14" y="85"  font-size="11" fill="#475569"><tspan fill="#94a3b8">conf      </tspan> 0.87</text>
      <text x="14" y="105" font-size="11" fill="#475569"><tspan fill="#94a3b8">side      </tspan> ally  ·  <tspan fill="#94a3b8">track</tspan> 12</text>
      <text x="14" y="135" font-size="10" fill="#64748b" font-style="italic">→ packed into one detection record per box</text>
    </g>

    <text x="502" y="690" text-anchor="middle" font-size="11" fill="#475569">Replaces the multi-detector</text>
    <text x="502" y="708" text-anchor="middle" font-size="11" fill="#475569">+ ResNet card / elixir classifier stack</text>
    <text x="502" y="745" text-anchor="middle" font-size="11" fill="#64748b" font-style="italic">Optional ByteTrack tracker</text>
    <text x="502" y="763" text-anchor="middle" font-size="11" fill="#64748b" font-style="italic">attaches a stable track_id.</text>
  </g>

  <!-- ============================================================ -->
  <!-- STAGE 3 — Multimodal Tokenizer                               -->
  <!-- ============================================================ -->
  <g>
    <rect x="694" y="90" width="280" height="860" rx="14" fill="#ffffff" stroke="#e2e8f0" stroke-width="1.5" filter="url(#cardshadow)"/>
    <circle cx="724" cy="123" r="17" fill="#0ea5e9"/>
    <text x="724" y="129" text-anchor="middle" font-size="16" font-weight="700" fill="white">3</text>
    <text x="834" y="120" text-anchor="middle" font-size="15" font-weight="700" fill="#0f172a">Multimodal Tokenizer</text>
    <text x="834" y="140" text-anchor="middle" font-size="11" fill="#64748b">Heterogeneous inputs → one token sequence</text>

    <!-- 7 token categories -->
    <g font-size="11" fill="#0f172a">
      <!-- image patch tokens (blue) -->
      <g transform="translate(710, 180)">
        <rect width="60" height="22" rx="4" fill="#dbeafe" stroke="#3b82f6" stroke-width="1.4"/>
        <rect x="6" y="3" width="14" height="16" rx="2" fill="#3b82f6"/>
        <rect x="22" y="3" width="14" height="16" rx="2" fill="#3b82f6" opacity="0.8"/>
        <rect x="38" y="3" width="14" height="16" rx="2" fill="#3b82f6" opacity="0.6"/>
        <text x="78" y="16" font-weight="600" fill="#1e3a8a">Image patches</text>
        <text x="78" y="30" font-size="9.5" fill="#64748b">ViT patchify of arena</text>
      </g>
      <!-- yolo object tokens (green) -->
      <g transform="translate(710, 240)">
        <rect width="60" height="22" rx="4" fill="#dcfce7" stroke="#16a34a" stroke-width="1.4"/>
        <rect x="6" y="3" width="14" height="16" rx="2" fill="#16a34a"/>
        <rect x="22" y="3" width="14" height="16" rx="2" fill="#16a34a" opacity="0.8"/>
        <rect x="38" y="3" width="14" height="16" rx="2" fill="#16a34a" opacity="0.6"/>
        <text x="78" y="16" font-weight="600" fill="#14532d">YOLO objects</text>
        <text x="78" y="30" font-size="9.5" fill="#64748b">cls + bbox + conf + side</text>
      </g>
      <!-- card tokens (purple) -->
      <g transform="translate(710, 300)">
        <rect width="60" height="22" rx="4" fill="#f3e8ff" stroke="#a855f7" stroke-width="1.4"/>
        <rect x="6" y="3" width="9" height="16" rx="2" fill="#a855f7"/>
        <rect x="17" y="3" width="9" height="16" rx="2" fill="#a855f7" opacity="0.85"/>
        <rect x="28" y="3" width="9" height="16" rx="2" fill="#a855f7" opacity="0.7"/>
        <rect x="39" y="3" width="9" height="16" rx="2" fill="#a855f7" opacity="0.55"/>
        <rect x="50" y="3" width="6" height="16" rx="2" fill="#a855f7" opacity="0.4"/>
        <text x="78" y="16" font-weight="600" fill="#581c87">Hand cards (×5)</text>
        <text x="78" y="30" font-size="9.5" fill="#64748b">card-name + slot id</text>
      </g>
      <!-- elixir / game info (yellow) -->
      <g transform="translate(710, 360)">
        <rect width="60" height="22" rx="4" fill="#fef9c3" stroke="#eab308" stroke-width="1.4"/>
        <rect x="22" y="3" width="16" height="16" rx="2" fill="#eab308"/>
        <text x="78" y="16" font-weight="600" fill="#713f12">Elixir / game info</text>
        <text x="78" y="30" font-size="9.5" fill="#64748b">0–10 elixir embedding</text>
      </g>
      <!-- previous action (orange) -->
      <g transform="translate(710, 420)">
        <rect width="60" height="22" rx="4" fill="#ffedd5" stroke="#f97316" stroke-width="1.4"/>
        <rect x="22" y="3" width="16" height="16" rx="2" fill="#f97316"/>
        <text x="78" y="16" font-weight="600" fill="#7c2d12">Previous action</text>
        <text x="78" y="30" font-size="9.5" fill="#64748b">card slot + (row, col)</text>
      </g>
      <!-- reward / RTG (red/pink) -->
      <g transform="translate(710, 480)">
        <rect width="60" height="22" rx="4" fill="#fee2e2" stroke="#ef4444" stroke-width="1.4"/>
        <rect x="14" y="3" width="14" height="16" rx="2" fill="#ef4444"/>
        <rect x="32" y="3" width="14" height="16" rx="2" fill="#ef4444" opacity="0.7"/>
        <text x="78" y="16" font-weight="600" fill="#7f1d1d">Reward / RTG</text>
        <text x="78" y="30" font-size="9.5" fill="#64748b">scalar tokens</text>
      </g>
      <!-- timestep (gray) -->
      <g transform="translate(710, 540)">
        <rect width="60" height="22" rx="4" fill="#f1f5f9" stroke="#94a3b8" stroke-width="1.4"/>
        <rect x="22" y="3" width="16" height="16" rx="2" fill="#94a3b8"/>
        <text x="78" y="16" font-weight="600" fill="#334155">Timestep</text>
        <text x="78" y="30" font-size="9.5" fill="#64748b">absolute frame index</text>
      </g>
    </g>

    <!-- token type bias + unified seq arrow -->
    <text x="834" y="610" text-anchor="middle" font-size="11" fill="#0f172a" font-weight="600">+ token-type embedding</text>
    <line x1="834" y1="622" x2="834" y2="660" stroke="#334155" stroke-width="2" marker-end="url(#arrowhead-thin)"/>

    <!-- unified token sequence row -->
    <g transform="translate(710, 670)">
      <text x="62" y="-4" font-size="10" fill="#64748b" text-anchor="middle">unified token sequence per frame</text>
      <rect x="0" y="2" width="14" height="22" rx="3" fill="#3b82f6"/>
      <rect x="16" y="2" width="14" height="22" rx="3" fill="#3b82f6"/>
      <rect x="32" y="2" width="14" height="22" rx="3" fill="#16a34a"/>
      <rect x="48" y="2" width="14" height="22" rx="3" fill="#16a34a"/>
      <rect x="64" y="2" width="14" height="22" rx="3" fill="#a855f7"/>
      <rect x="80" y="2" width="14" height="22" rx="3" fill="#eab308"/>
      <rect x="96" y="2" width="14" height="22" rx="3" fill="#f97316"/>
      <rect x="112" y="2" width="14" height="22" rx="3" fill="#ef4444"/>
      <rect x="128" y="2" width="14" height="22" rx="3" fill="#ef4444" opacity="0.7"/>
      <rect x="144" y="2" width="14" height="22" rx="3" fill="#94a3b8"/>
      <rect x="160" y="2" width="14" height="22" rx="3" fill="#3b82f6"/>
      <rect x="176" y="2" width="14" height="22" rx="3" fill="#16a34a"/>
      <rect x="192" y="2" width="14" height="22" rx="3" fill="#a855f7"/>
      <rect x="208" y="2" width="14" height="22" rx="3" fill="#16a34a"/>
      <rect x="224" y="2" width="14" height="22" rx="3" fill="#3b82f6"/>
      <rect x="240" y="2" width="14" height="22" rx="3" fill="#3b82f6"/>
    </g>

    <text x="834" y="745" text-anchor="middle" font-size="11" fill="#475569">Variable length, mixed modalities</text>
    <text x="834" y="763" text-anchor="middle" font-size="11" fill="#475569">— all live in the same embedding space.</text>
  </g>

  <!-- ============================================================ -->
  <!-- STAGE 4 — Perceiver Encoder                                  -->
  <!-- ============================================================ -->
  <g>
    <rect x="1026" y="90" width="280" height="860" rx="14" fill="#ffffff" stroke="#e2e8f0" stroke-width="1.5" filter="url(#cardshadow)"/>
    <circle cx="1056" cy="123" r="17" fill="#7c3aed"/>
    <text x="1056" y="129" text-anchor="middle" font-size="16" font-weight="700" fill="white">4</text>
    <text x="1166" y="120" text-anchor="middle" font-size="15" font-weight="700" fill="#0f172a">Perceiver Encoder</text>
    <text x="1166" y="140" text-anchor="middle" font-size="11" fill="#64748b">Latent bottleneck, fixed output size</text>

    <!-- left side: variable-length input tokens (cluster) -->
    <g transform="translate(1042, 180)">
      <text x="50" y="-4" font-size="10" fill="#64748b">M variable input tokens</text>
      <!-- random-ish cluster of small colored squares -->
      <g>
        <rect x="0"  y="0"  width="14" height="14" rx="2" fill="#3b82f6"/>
        <rect x="16" y="2"  width="14" height="14" rx="2" fill="#16a34a"/>
        <rect x="32" y="0"  width="14" height="14" rx="2" fill="#3b82f6"/>
        <rect x="48" y="3"  width="14" height="14" rx="2" fill="#a855f7"/>
        <rect x="64" y="0"  width="14" height="14" rx="2" fill="#16a34a"/>
        <rect x="80" y="3"  width="14" height="14" rx="2" fill="#3b82f6"/>

        <rect x="0"  y="20" width="14" height="14" rx="2" fill="#3b82f6"/>
        <rect x="16" y="22" width="14" height="14" rx="2" fill="#3b82f6"/>
        <rect x="32" y="20" width="14" height="14" rx="2" fill="#eab308"/>
        <rect x="48" y="23" width="14" height="14" rx="2" fill="#f97316"/>
        <rect x="64" y="20" width="14" height="14" rx="2" fill="#16a34a"/>
        <rect x="80" y="23" width="14" height="14" rx="2" fill="#a855f7"/>

        <rect x="0"  y="40" width="14" height="14" rx="2" fill="#16a34a"/>
        <rect x="16" y="42" width="14" height="14" rx="2" fill="#3b82f6"/>
        <rect x="32" y="40" width="14" height="14" rx="2" fill="#ef4444"/>
        <rect x="48" y="43" width="14" height="14" rx="2" fill="#3b82f6"/>
        <rect x="64" y="40" width="14" height="14" rx="2" fill="#16a34a"/>
        <rect x="80" y="43" width="14" height="14" rx="2" fill="#94a3b8"/>

        <rect x="0"  y="60" width="14" height="14" rx="2" fill="#16a34a"/>
        <rect x="16" y="62" width="14" height="14" rx="2" fill="#a855f7"/>
        <rect x="32" y="60" width="14" height="14" rx="2" fill="#3b82f6"/>
        <rect x="48" y="63" width="14" height="14" rx="2" fill="#16a34a"/>
        <rect x="64" y="60" width="14" height="14" rx="2" fill="#3b82f6"/>
        <rect x="80" y="63" width="14" height="14" rx="2" fill="#3b82f6"/>

        <rect x="0"  y="80" width="14" height="14" rx="2" fill="#3b82f6"/>
        <rect x="16" y="82" width="14" height="14" rx="2" fill="#3b82f6"/>
        <rect x="32" y="80" width="14" height="14" rx="2" fill="#16a34a"/>
        <rect x="48" y="83" width="14" height="14" rx="2" fill="#3b82f6"/>
        <rect x="64" y="80" width="14" height="14" rx="2" fill="#3b82f6"/>
        <rect x="80" y="83" width="14" height="14" rx="2" fill="#3b82f6"/>
      </g>
    </g>

    <!-- right side: small fixed latent array -->
    <g transform="translate(1212, 200)">
      <text x="40" y="-12" font-size="10" fill="#64748b" text-anchor="middle">K latents</text>
      <text x="40" y="0" font-size="10" fill="#64748b" text-anchor="middle">(fixed)</text>
      <rect x="0"  y="6"  width="80" height="20" rx="3" fill="#1e293b"/>
      <rect x="0"  y="30" width="80" height="20" rx="3" fill="#1e293b"/>
      <rect x="0"  y="54" width="80" height="20" rx="3" fill="#1e293b"/>
      <rect x="0"  y="78" width="80" height="20" rx="3" fill="#1e293b"/>
      <rect x="0"  y="102" width="80" height="20" rx="3" fill="#1e293b"/>
      <rect x="0"  y="126" width="80" height="20" rx="3" fill="#1e293b"/>
      <!-- self-attention loop arrow -->
      <path d="M 86 38 Q 110 38 110 76 Q 110 114 86 114"
            fill="none" stroke="#7c3aed" stroke-width="1.6" marker-end="url(#arrowhead-curve)"/>
      <text x="120" y="80" font-size="10" fill="#7c3aed" font-weight="600">self-attn</text>
      <text x="120" y="94" font-size="10" fill="#7c3aed" font-weight="600">×L</text>
    </g>

    <!-- cross attention arrows -->
    <g stroke="#7c3aed" stroke-width="1.4" fill="none" opacity="0.6">
      <path d="M 1212 218 Q 1170 220 1140 230" marker-end="url(#arrowhead-curve)"/>
      <path d="M 1212 240 Q 1170 250 1135 260" marker-end="url(#arrowhead-curve)"/>
      <path d="M 1212 260 Q 1170 268 1142 252" marker-end="url(#arrowhead-curve)"/>
      <path d="M 1212 280 Q 1170 282 1138 270" marker-end="url(#arrowhead-curve)"/>
    </g>
    <text x="1162" y="370" text-anchor="middle" font-size="11" font-weight="600" fill="#7c3aed">cross-attention</text>
    <text x="1162" y="386" text-anchor="middle" font-size="10" fill="#64748b">latents (Q) ← input tokens (K, V)</text>

    <!-- output box -->
    <g transform="translate(1066, 470)">
      <rect width="200" height="80" rx="10" fill="#ede9fe" stroke="#7c3aed" stroke-width="1.6"/>
      <text x="100" y="32" text-anchor="middle" font-size="12" font-weight="700" fill="#5b21b6">Per-frame state</text>
      <text x="100" y="52" text-anchor="middle" font-size="11" fill="#5b21b6">(K, D) latent array</text>
      <text x="100" y="68" text-anchor="middle" font-size="10" fill="#64748b" font-style="italic">no spatial-then-temporal split</text>
    </g>

    <text x="1166" y="600" text-anchor="middle" font-size="11" fill="#475569">A small set of learned</text>
    <text x="1166" y="618" text-anchor="middle" font-size="11" fill="#475569">latent queries compresses</text>
    <text x="1166" y="636" text-anchor="middle" font-size="11" fill="#475569">arbitrary-length input.</text>

    <text x="1166" y="685" text-anchor="middle" font-size="11" fill="#64748b" font-style="italic">Cost is O(M·K), not O(M²);</text>
    <text x="1166" y="703" text-anchor="middle" font-size="11" fill="#64748b" font-style="italic">scales to long frame sequences.</text>

    <text x="1166" y="755" text-anchor="middle" font-size="11" fill="#475569">Output feeds the Decision</text>
    <text x="1166" y="773" text-anchor="middle" font-size="11" fill="#475569">Transformer, one frame at a time.</text>
  </g>

  <!-- ============================================================ -->
  <!-- STAGE 5 — Decision Transformer                               -->
  <!-- ============================================================ -->
  <g>
    <rect x="1358" y="90" width="280" height="860" rx="14" fill="#ffffff" stroke="#e2e8f0" stroke-width="1.5" filter="url(#cardshadow)"/>
    <circle cx="1388" cy="123" r="17" fill="#0f766e"/>
    <text x="1388" y="129" text-anchor="middle" font-size="16" font-weight="700" fill="white">5</text>
    <text x="1498" y="120" text-anchor="middle" font-size="15" font-weight="700" fill="#0f172a">Decision Transformer</text>
    <text x="1498" y="140" text-anchor="middle" font-size="11" fill="#64748b">Causal sequence over T timesteps</text>

    <!-- 3 timestep columns -->
    <g transform="translate(1378, 180)">
      <!-- column labels -->
      <text x="40"  y="14" text-anchor="middle" font-size="11" font-weight="700" fill="#334155">t − 2</text>
      <text x="130" y="14" text-anchor="middle" font-size="11" font-weight="700" fill="#334155">t − 1</text>
      <text x="220" y="14" text-anchor="middle" font-size="11" font-weight="700" fill="#334155">t</text>

      <!-- one column = 6 stacked small boxes (RTG, state×3, prev-a, prev-r) + timestep -->
      <g font-size="9" fill="#1e293b">
        <!-- col t-2 -->
        <g transform="translate(10, 24)">
          <rect width="60" height="18" rx="3" fill="#fee2e2" stroke="#ef4444" stroke-width="1.2"/>
          <text x="30" y="13" text-anchor="middle" font-weight="600">RTG</text>
          <rect y="22" width="60" height="14" rx="3" fill="#1e293b"/>
          <rect y="38" width="60" height="14" rx="3" fill="#1e293b"/>
          <rect y="54" width="60" height="14" rx="3" fill="#1e293b"/>
          <text x="30" y="48" text-anchor="middle" fill="#cbd5e1" font-weight="600">state K=K</text>
          <rect y="72" width="60" height="14" rx="3" fill="#ffedd5" stroke="#f97316" stroke-width="1.1"/>
          <text x="30" y="83" text-anchor="middle" font-weight="600" fill="#7c2d12">prev a</text>
          <rect y="89" width="60" height="14" rx="3" fill="#fee2e2" stroke="#ef4444" stroke-width="1.1"/>
          <text x="30" y="100" text-anchor="middle" font-weight="600" fill="#7f1d1d">prev r</text>
          <rect y="106" width="60" height="14" rx="3" fill="#f1f5f9" stroke="#94a3b8" stroke-width="1.1"/>
          <text x="30" y="117" text-anchor="middle" font-weight="600" fill="#475569">tstep</text>
        </g>
        <!-- col t-1 -->
        <g transform="translate(100, 24)">
          <rect width="60" height="18" rx="3" fill="#fee2e2" stroke="#ef4444" stroke-width="1.2"/>
          <text x="30" y="13" text-anchor="middle" font-weight="600">RTG</text>
          <rect y="22" width="60" height="14" rx="3" fill="#1e293b"/>
          <rect y="38" width="60" height="14" rx="3" fill="#1e293b"/>
          <rect y="54" width="60" height="14" rx="3" fill="#1e293b"/>
          <text x="30" y="48" text-anchor="middle" fill="#cbd5e1" font-weight="600">state K=K</text>
          <rect y="72" width="60" height="14" rx="3" fill="#ffedd5" stroke="#f97316" stroke-width="1.1"/>
          <text x="30" y="83" text-anchor="middle" font-weight="600" fill="#7c2d12">prev a</text>
          <rect y="89" width="60" height="14" rx="3" fill="#fee2e2" stroke="#ef4444" stroke-width="1.1"/>
          <text x="30" y="100" text-anchor="middle" font-weight="600" fill="#7f1d1d">prev r</text>
          <rect y="106" width="60" height="14" rx="3" fill="#f1f5f9" stroke="#94a3b8" stroke-width="1.1"/>
          <text x="30" y="117" text-anchor="middle" font-weight="600" fill="#475569">tstep</text>
        </g>
        <!-- col t -->
        <g transform="translate(190, 24)">
          <rect width="60" height="18" rx="3" fill="#fee2e2" stroke="#ef4444" stroke-width="1.2"/>
          <text x="30" y="13" text-anchor="middle" font-weight="600">RTG</text>
          <rect y="22" width="60" height="14" rx="3" fill="#1e293b"/>
          <rect y="38" width="60" height="14" rx="3" fill="#1e293b"/>
          <rect y="54" width="60" height="14" rx="3" fill="#1e293b"/>
          <text x="30" y="48" text-anchor="middle" fill="#cbd5e1" font-weight="600">state K=K</text>
          <rect y="72" width="60" height="14" rx="3" fill="#ffedd5" stroke="#f97316" stroke-width="1.1"/>
          <text x="30" y="83" text-anchor="middle" font-weight="600" fill="#7c2d12">prev a</text>
          <rect y="89" width="60" height="14" rx="3" fill="#fee2e2" stroke="#ef4444" stroke-width="1.1"/>
          <text x="30" y="100" text-anchor="middle" font-weight="600" fill="#7f1d1d">prev r</text>
          <rect y="106" width="60" height="14" rx="3" fill="#f1f5f9" stroke="#94a3b8" stroke-width="1.1"/>
          <text x="30" y="117" text-anchor="middle" font-weight="600" fill="#475569">tstep</text>
        </g>
      </g>

      <!-- causal arrows -->
      <line x1="70" y1="65" x2="100" y2="65" stroke="#334155" stroke-width="1.6" marker-end="url(#arrowhead-thin)"/>
      <line x1="160" y1="65" x2="190" y2="65" stroke="#334155" stroke-width="1.6" marker-end="url(#arrowhead-thin)"/>
    </g>

    <!-- causal mask icon -->
    <g transform="translate(1410, 360)">
      <text x="80" y="0" text-anchor="middle" font-size="11" font-weight="600" fill="#0f766e">Causal mask</text>
      <g stroke="#94a3b8" stroke-width="0.8" fill="#f8fafc">
        <rect x="0"  y="10" width="14" height="14"/>
        <rect x="14" y="10" width="14" height="14"/>
        <rect x="28" y="10" width="14" height="14"/>
        <rect x="42" y="10" width="14" height="14"/>
        <rect x="0"  y="24" width="14" height="14"/>
        <rect x="14" y="24" width="14" height="14"/>
        <rect x="28" y="24" width="14" height="14"/>
        <rect x="42" y="24" width="14" height="14"/>
        <rect x="0"  y="38" width="14" height="14"/>
        <rect x="14" y="38" width="14" height="14"/>
        <rect x="28" y="38" width="14" height="14"/>
        <rect x="42" y="38" width="14" height="14"/>
        <rect x="0"  y="52" width="14" height="14"/>
        <rect x="14" y="52" width="14" height="14"/>
        <rect x="28" y="52" width="14" height="14"/>
        <rect x="42" y="52" width="14" height="14"/>
      </g>
      <!-- mask: lower-triangular dark fill -->
      <g fill="#0f766e">
        <rect x="0"  y="10" width="14" height="14"/>
        <rect x="0"  y="24" width="14" height="14"/>
        <rect x="14" y="24" width="14" height="14"/>
        <rect x="0"  y="38" width="14" height="14"/>
        <rect x="14" y="38" width="14" height="14"/>
        <rect x="28" y="38" width="14" height="14"/>
        <rect x="0"  y="52" width="14" height="14"/>
        <rect x="14" y="52" width="14" height="14"/>
        <rect x="28" y="52" width="14" height="14"/>
        <rect x="42" y="52" width="14" height="14"/>
      </g>
      <text x="80" y="92" text-anchor="middle" font-size="9.5" fill="#64748b" font-style="italic">past attends past only</text>
    </g>

    <!-- text -->
    <text x="1498" y="500" text-anchor="middle" font-size="11" fill="#475569">Joint attention over space, time,</text>
    <text x="1498" y="518" text-anchor="middle" font-size="11" fill="#475569">objects, cards, rewards, actions</text>
    <text x="1498" y="536" text-anchor="middle" font-size="11" fill="#475569">— no hard-coded ordering.</text>

    <!-- offline RL banner -->
    <g transform="translate(1378, 580)">
      <rect width="240" height="58" rx="10" fill="#ecfdf5" stroke="#0f766e" stroke-width="1.6"/>
      <text x="120" y="22" text-anchor="middle" font-size="11" font-weight="700" fill="#065f46">Offline RL / imitation learning</text>
      <text x="120" y="40" text-anchor="middle" font-size="10.5" fill="#065f46">RTG-conditioned, behavior-cloning</text>
      <text x="120" y="52" text-anchor="middle" font-size="10.5" fill="#065f46">on replay trajectories.</text>
    </g>

    <text x="1498" y="685" text-anchor="middle" font-size="11" fill="#64748b" font-style="italic">Sequence length T = 30 frames</text>
    <text x="1498" y="703" text-anchor="middle" font-size="11" fill="#64748b" font-style="italic">in the default config.</text>

    <text x="1498" y="755" text-anchor="middle" font-size="11" fill="#475569">Outputs the hidden state at</text>
    <text x="1498" y="773" text-anchor="middle" font-size="11" fill="#475569">each step's action slot.</text>
  </g>

  <!-- ============================================================ -->
  <!-- STAGE 6 — Policy Heads                                       -->
  <!-- ============================================================ -->
  <g>
    <rect x="1690" y="90" width="280" height="860" rx="14" fill="#ffffff" stroke="#e2e8f0" stroke-width="1.5" filter="url(#cardshadow)"/>
    <circle cx="1720" cy="123" r="17" fill="#f97316"/>
    <text x="1720" y="129" text-anchor="middle" font-size="16" font-weight="700" fill="white">6</text>
    <text x="1830" y="120" text-anchor="middle" font-size="15" font-weight="700" fill="#0f172a">Policy Heads</text>
    <text x="1830" y="140" text-anchor="middle" font-size="11" fill="#64748b">Three predictions per timestep</text>

    <!-- HEAD 1: Select -->
    <g transform="translate(1710, 175)">
      <rect width="240" height="170" rx="10" fill="#fff7ed" stroke="#f97316" stroke-width="1.6"/>
      <text x="120" y="24" text-anchor="middle" font-size="13" font-weight="700" fill="#9a3412">Select Head</text>
      <text x="120" y="42" text-anchor="middle" font-size="10.5" fill="#7c2d12">which card (or no-op)</text>
      <!-- 4 cards + no-op -->
      <g transform="translate(20, 60)">
        <rect x="0"   y="0" width="34" height="50" rx="5" fill="#a855f7"/>
        <text x="17"  y="30" text-anchor="middle" font-size="11" font-weight="700" fill="white">1</text>
        <rect x="40"  y="0" width="34" height="50" rx="5" fill="#a855f7" opacity="0.85"/>
        <text x="57"  y="30" text-anchor="middle" font-size="11" font-weight="700" fill="white">2</text>
        <rect x="80"  y="0" width="34" height="50" rx="5" fill="#a855f7" opacity="0.7"/>
        <text x="97"  y="30" text-anchor="middle" font-size="11" font-weight="700" fill="white">3</text>
        <rect x="120" y="0" width="34" height="50" rx="5" fill="#a855f7" opacity="0.55"/>
        <text x="137" y="30" text-anchor="middle" font-size="11" font-weight="700" fill="white">4</text>
        <rect x="166" y="0" width="34" height="50" rx="5" fill="#f1f5f9" stroke="#94a3b8" stroke-width="1.4"/>
        <text x="183" y="32" text-anchor="middle" font-size="9.5" font-weight="700" fill="#475569">no-op</text>
      </g>
      <text x="120" y="146" text-anchor="middle" font-size="10" fill="#7c2d12" font-style="italic">categorical softmax over 5 options</text>
    </g>

    <!-- HEAD 2: Position -->
    <g transform="translate(1710, 365)">
      <rect width="240" height="195" rx="10" fill="#eff6ff" stroke="#3b82f6" stroke-width="1.6"/>
      <text x="120" y="24" text-anchor="middle" font-size="13" font-weight="700" fill="#1e40af">Position Head</text>
      <text x="120" y="42" text-anchor="middle" font-size="10.5" fill="#1e3a8a">where to deploy on a 36 × 64 grid</text>

      <!-- mini grid (8 rows × 12 cols representing 36x64) -->
      <g transform="translate(60, 56)" stroke="#bfdbfe" stroke-width="0.7" fill="#ffffff">
        <g>
          <rect x="0"   y="0"   width="120" height="100" fill="#f0f9ff" stroke="#3b82f6" stroke-width="1.2"/>
        </g>
        <g>
          <line x1="10"  y1="0"  x2="10"  y2="100"/>
          <line x1="20"  y1="0"  x2="20"  y2="100"/>
          <line x1="30"  y1="0"  x2="30"  y2="100"/>
          <line x1="40"  y1="0"  x2="40"  y2="100"/>
          <line x1="50"  y1="0"  x2="50"  y2="100"/>
          <line x1="60"  y1="0"  x2="60"  y2="100"/>
          <line x1="70"  y1="0"  x2="70"  y2="100"/>
          <line x1="80"  y1="0"  x2="80"  y2="100"/>
          <line x1="90"  y1="0"  x2="90"  y2="100"/>
          <line x1="100" y1="0"  x2="100" y2="100"/>
          <line x1="110" y1="0"  x2="110" y2="100"/>
          <line x1="0"   y1="10" x2="120" y2="10"/>
          <line x1="0"   y1="20" x2="120" y2="20"/>
          <line x1="0"   y1="30" x2="120" y2="30"/>
          <line x1="0"   y1="40" x2="120" y2="40"/>
          <line x1="0"   y1="50" x2="120" y2="50"/>
          <line x1="0"   y1="60" x2="120" y2="60"/>
          <line x1="0"   y1="70" x2="120" y2="70"/>
          <line x1="0"   y1="80" x2="120" y2="80"/>
          <line x1="0"   y1="90" x2="120" y2="90"/>
        </g>
        <!-- highlighted cell = predicted deployment cell -->
        <rect x="50" y="60" width="10" height="10" fill="#3b82f6"/>
      </g>

      <text x="120" y="180" text-anchor="middle" font-size="10" fill="#1e3a8a" font-style="italic">argmax over 36·64 = 2304 cells</text>
    </g>

    <!-- HEAD 3: Delay -->
    <g transform="translate(1710, 580)">
      <rect width="240" height="160" rx="10" fill="#fee2e2" stroke="#ef4444" stroke-width="1.6"/>
      <text x="120" y="24" text-anchor="middle" font-size="13" font-weight="700" fill="#991b1b">Delay Head</text>
      <text x="120" y="42" text-anchor="middle" font-size="10.5" fill="#7f1d1d">when to deploy (frames ahead)</text>

      <!-- number line 0..20 -->
      <g transform="translate(20, 65)">
        <line x1="0" y1="20" x2="200" y2="20" stroke="#ef4444" stroke-width="1.4"/>
        <!-- ticks -->
        <g stroke="#ef4444" stroke-width="1">
          <line x1="0"   y1="14" x2="0"   y2="26"/>
          <line x1="50"  y1="14" x2="50"  y2="26"/>
          <line x1="100" y1="14" x2="100" y2="26"/>
          <line x1="150" y1="14" x2="150" y2="26"/>
          <line x1="200" y1="14" x2="200" y2="26"/>
        </g>
        <text x="0"   y="48" text-anchor="middle" font-size="10" fill="#7f1d1d">0</text>
        <text x="50"  y="48" text-anchor="middle" font-size="10" fill="#7f1d1d">5</text>
        <text x="100" y="48" text-anchor="middle" font-size="10" fill="#7f1d1d">10</text>
        <text x="150" y="48" text-anchor="middle" font-size="10" fill="#7f1d1d">15</text>
        <text x="200" y="48" text-anchor="middle" font-size="10" fill="#7f1d1d">20</text>
        <!-- predicted bin -->
        <circle cx="80" cy="20" r="6" fill="#ef4444"/>
        <text x="80" y="6" text-anchor="middle" font-size="10" font-weight="700" fill="#991b1b">Δt = 8</text>
      </g>

      <text x="120" y="142" text-anchor="middle" font-size="10" fill="#991b1b" font-style="italic">categorical over 21 delay bins</text>
    </g>

    <text x="1830" y="780" text-anchor="middle" font-size="11" fill="#475569" font-style="italic">L = w₁·CE(select) + w₂·CE(pos) + w₃·CE(delay)</text>
  </g>

  <!-- ===================== BOTTOM NOTE ===================== -->
  <g transform="translate(0, 985)">
    <rect x="30" y="0" width="1940" height="58" rx="10" fill="#f8fafc" stroke="#cbd5e1" stroke-width="1"/>
    <text x="60" y="25" font-size="12" font-weight="700" fill="#334155">Removed from the legacy pipeline:</text>
    <text x="60" y="45" font-size="12" fill="#475569">PaddleOCR (timer / center-text)  ·  ResNet card &amp; elixir classifiers  ·  episode cutting (cut_episodes.py)  ·  handcrafted SARBuilder logic  ·  separate spatial-then-temporal stages.</text>
  </g>
</svg>
